<?xml version="1.0" encoding="UTF-8" standalone="no"?>
<!DOCTYPE svg PUBLIC "-//W3C//DTD SVG 1.1//EN" "http://www.w3.org/Graphics/SVG/1.1/DTD/svg11.dtd">
<svg width="100%" height="100%" viewBox="0 0 44 35" version="1.1" xmlns="http://www.w3.org/2000/svg" xmlns:xlink="http://www.w3.org/1999/xlink" xml:space="preserve" xmlns:serif="http://www.serif.com/" style="fill-rule:evenodd;clip-rule:evenodd;stroke-linejoin:round;stroke-miterlimit:2;">
    <path d="M6.009,34.033L37.147,34.033C39.126,34.033 40.622,33.533 41.636,32.531C42.649,31.529 43.156,30.051 43.156,28.097L43.156,5.936C43.156,3.982 42.649,2.504 41.636,1.502C40.622,0.501 39.126,-0 37.147,-0L6.009,-0C4.03,-0 2.534,0.501 1.52,1.502C0.507,2.504 -0,3.982 -0,5.936L-0,28.097C-0,30.051 0.507,31.529 1.52,32.531C2.534,33.533 4.03,34.033 6.009,34.033ZM6.3,30.391C5.475,30.391 4.825,30.155 4.352,29.681C3.879,29.208 3.642,28.558 3.642,27.733L3.642,26.258L8.759,21.797C9.159,21.445 9.563,21.177 9.97,20.995C10.376,20.813 10.786,20.722 11.199,20.722C12.133,20.722 13.001,21.092 13.803,21.833L17.244,24.929L25.857,17.281C26.719,16.516 27.678,16.133 28.734,16.133C29.232,16.133 29.73,16.231 30.228,16.425C30.725,16.619 31.18,16.91 31.593,17.299L39.496,24.619L39.496,27.751C39.496,28.577 39.256,29.223 38.777,29.69C38.297,30.158 37.663,30.391 36.874,30.391L6.3,30.391ZM14.258,17.354C13.42,17.354 12.659,17.147 11.973,16.734C11.287,16.322 10.737,15.772 10.325,15.086C9.912,14.401 9.706,13.645 9.706,12.819C9.706,11.982 9.912,11.22 10.325,10.534C10.737,9.848 11.287,9.299 11.973,8.886C12.659,8.473 13.42,8.267 14.258,8.267C15.071,8.267 15.821,8.473 16.507,8.886C17.193,9.299 17.742,9.848 18.155,10.534C18.567,11.22 18.774,11.982 18.774,12.819C18.774,13.645 18.567,14.401 18.155,15.086C17.742,15.772 17.193,16.322 16.507,16.734C15.821,17.147 15.071,17.354 14.258,17.354Z" style="fill:white;fill-rule:nonzero;"/>
</svg>
